<svg width="16" height="16" viewBox="0 0 16 16" fill="none" xmlns="http://www.w3.org/2000/svg"><path fill="#787878" fill-rule="evenodd" clip-rule="evenodd" d="M0 3C0 2.44772 0.447715 2 1 2H15C15.5523 2 16 2.44772 16 3V13C16 13.5523 15.5523 14 15 14H1C0.447715 14 0 13.5523 0 13V3ZM1.39539 4.64952C1.61375 4.2908 2.08938 4.16351 2.45772 4.36521L8 7.40008L13.5423 4.36521C13.9106 4.16351 14.3863 4.2908 14.6046 4.64952C14.823 5.00824 14.7014 5.46255 14.3331 5.66425L8.54264 8.83499C8.39205 8.96438 8.1967 9.03307 8 9.02946C7.80331 9.03307 7.60796 8.96438 7.45736 8.83499L1.66695 5.66425C1.29861 5.46255 1.17702 5.00824 1.39539 4.64952Z" /></svg>
