<svg width="16" height="16" viewBox="0 0 16 16" fill="none" xmlns="http://www.w3.org/2000/svg"><path fill="#787878" fill-rule="evenodd" clip-rule="evenodd" d="M4.03485 2.18657C3.91864 2.24269 3.8259 2.33972 3.7753 2.45896C3.74595 2.52797 3.73139 2.60279 3.73301 2.67824L3.73317 2.68407V6.62212L0.30196 8.58681C0.182542 8.64448 0.0878946 8.74535 0.0383095 8.86913C0.013071 8.93196 -3.9136e-05 8.99933 8.77554e-08 9.06742L0.000260618 9.08432V13.3338L0.000260849 13.3343C0.000160841 13.4555 0.041697 13.5743 0.119117 13.6695C0.166786 13.7282 0.22671 13.7767 0.295 13.8109L3.99693 15.9306C4.08208 15.9794 4.17518 16.0022 4.26698 16.0016C4.35878 16.0022 4.45187 15.9794 4.53702 15.9306L8.00013 13.9477L11.4632 15.9306C11.5484 15.9794 11.6415 16.0022 11.7333 16.0016C11.8251 16.0022 11.9182 15.9794 12.0033 15.9306L15.7092 13.8086C15.7465 13.7895 15.7812 13.7662 15.8127 13.7392C15.9399 13.6316 16.0066 13.4723 15.9995 13.3114V9.08415L15.9997 9.06989C16.0001 9.00133 15.9871 8.93346 15.9619 8.87017C15.9124 8.74591 15.8175 8.64463 15.6978 8.58681L12.2661 6.62184V2.68395C12.2664 2.67408 12.2664 2.6642 12.2662 2.6543C12.2648 2.59709 12.2542 2.54056 12.2349 2.48699C12.1875 2.35489 12.0895 2.24691 11.9642 2.18648L8.26965 0.0709904C8.1845 0.0222341 8.09141 -0.000600451 7.99961 1.19924e-05C7.90781 -0.000600451 7.81472 0.0222341 7.72957 0.0709904L4.03485 2.18657ZM7.99962 4.18636L5.34646 2.66717L7.99961 1.14799L10.6528 2.66718L7.99962 4.18636ZM1.61356 9.06742L4.26672 10.5866L6.91988 9.06742L4.26672 7.54823L1.61356 9.06742ZM11.733 10.5866L9.07986 9.06742L11.733 7.54823L14.3862 9.06742L11.733 10.5866Z" /></svg>
