<svg width="16" height="16" viewBox="0 0 16 16" fill="none" xmlns="http://www.w3.org/2000/svg"><path fill="#000000" fill-rule="evenodd" clip-rule="evenodd" d="M8 12.5C4.77155 12.5 2.5 12 2.15329 11.2715V10.4769C3.36571 11.1895 5.52756 11.5 8 11.5C10.4724 11.5 12.6325 11.1895 13.8449 10.4769V11.2715C13.5 12 11.2285 12.5 8 12.5ZM8 9.5C4.77155 9.5 2.5 9 2.15329 8.27155V7.47693C3.36571 8.18954 5.52756 8.49999 8 8.49999C10.4724 8.49999 12.6325 8.18954 13.8449 7.47693V8.27155C13.5 9 11.2285 9.5 8 9.5ZM8 6.5C4.77155 6.5 2.5 6 2.15329 5.27155V4.47693C3.36571 5.18954 5.52756 5.49999 8 5.49999C10.4724 5.49999 12.6325 5.18954 13.8449 4.47693V5.27155C13.5 6 11.2285 6.5 8 6.5ZM14.995 3.33944C14.7556 2.03392 11.7175 1 7.99907 1C4.28062 1 1.24677 2.03392 1.00736 3.33944C0.999664 3.35134 0.997564 12.6188 1.00316 12.6328C1.20267 13.9516 4.25331 15.0002 7.99907 15.0002C11.7448 15.0002 14.7955 13.9516 14.995 12.6328C15.0006 12.6188 15.0027 3.35134 14.995 3.33944Z" /></svg>
