<svg width="16" height="16" viewBox="0 0 16 16" fill="none" xmlns="http://www.w3.org/2000/svg"><path fill="#000000" fill-rule="evenodd" clip-rule="evenodd" d="M2 1C1.44772 1 1 1.44771 1 2V6.58824C1 7.14052 1.44771 7.58824 2 7.58824H6.58824C7.14052 7.58824 7.58824 7.14052 7.58824 6.58824V2C7.58824 1.44772 7.14052 1 6.58824 1H2ZM2 8.41177C1.44772 8.41177 1 8.85948 1 9.41176V14C1 14.5523 1.44771 15 2 15H6.58824C7.14052 15 7.58824 14.5523 7.58824 14V9.41177C7.58824 8.85948 7.14052 8.41177 6.58824 8.41177H2ZM8.41177 2C8.41177 1.44771 8.85948 1 9.41177 1H14C14.5523 1 15 1.44772 15 2V6.58824C15 7.14052 14.5523 7.58824 14 7.58824H9.41176C8.85948 7.58824 8.41177 7.14052 8.41177 6.58824V2ZM9.41177 8.41177C8.85948 8.41177 8.41177 8.85948 8.41177 9.41176V14C8.41177 14.5523 8.85948 15 9.41176 15H14C14.5523 15 15 14.5523 15 14V9.41177C15 8.85948 14.5523 8.41177 14 8.41177H9.41177Z" /></svg>
